<svg width="17" height="14" viewBox="0 0 17 14" fill="none" xmlns="http://www.w3.org/2000/svg">
<path d="M17 0V1.22454H14.7329C14.7268 1.22454 14.723 1.22725 14.7217 1.23266L12.6487 8.98182C12.6472 8.98705 12.644 8.99167 12.6396 8.99495C12.6351 8.99824 12.6297 9.00001 12.6242 9H1.42086C1.41676 9 1.41279 8.99864 1.40963 8.99615C1.40647 8.99366 1.40431 8.9902 1.40352 8.98636L0 1.83844C0 1.83281 0 1.82707 0 1.82123L13.2236 1.83259C13.234 1.83259 13.2405 1.82772 13.243 1.81798L13.7261 0.0133102C13.7271 0.00970528 13.7293 0.00650911 13.7324 0.00421924C13.7355 0.00192937 13.7392 0.00067429 13.7431 0.000649295L17 0ZM1.55686 3.04967C1.55518 3.04969 1.55353 3.05006 1.55202 3.05075C1.55051 3.05145 1.54917 3.05245 1.5481 3.05368C1.54703 3.05492 1.54626 3.05636 1.54584 3.05791C1.54541 3.05946 1.54534 3.06108 1.54564 3.06266L2.46908 7.76929C2.46955 7.77181 2.47093 7.7741 2.47298 7.77576C2.47503 7.77742 2.47762 7.77834 2.4803 7.77838L11.6402 7.77805C11.6428 7.77805 11.6453 7.77722 11.6474 7.77569C11.6494 7.77416 11.6509 7.77202 11.6515 7.76961L12.9088 3.0672C12.9092 3.06558 12.9092 3.06389 12.9088 3.06226C12.9085 3.06063 12.9077 3.0591 12.9066 3.05778C12.9056 3.05647 12.9042 3.05541 12.9026 3.05468C12.901 3.05395 12.8993 3.05357 12.8976 3.05357L1.55686 3.04967Z" fill="#6C6E75"/>
<path d="M9.3185 11.2703C9.32357 11.2561 9.31882 11.2491 9.30425 11.2491H5.6944C5.6925 11.249 5.69062 11.2495 5.68892 11.2504C5.68723 11.2513 5.68578 11.2527 5.68468 11.2543C5.68359 11.256 5.6829 11.2579 5.68266 11.26C5.68242 11.262 5.68265 11.264 5.68332 11.266C6.10007 12.4115 5.47653 13.6712 4.33362 13.9469C3.9781 14.0327 3.63059 14.0145 3.29111 13.8925C2.72932 13.6904 2.28596 13.2193 2.10197 12.6394C1.78022 11.6236 2.24258 10.5839 3.16919 10.1559C3.39424 10.052 3.6517 10.0001 3.94157 10.0003C6.25799 10.0012 8.63447 10.0011 11.071 10C11.9561 9.99967 12.701 10.5962 12.9315 11.4816C13.2767 12.8063 12.2693 14.0703 10.9792 13.9956C10.7991 13.9852 10.6249 13.9485 10.4567 13.8855C9.94997 13.6957 9.52561 13.2787 9.32832 12.7569C9.14317 12.2681 9.1399 11.7726 9.3185 11.2703ZM4.62275 11.9998C4.62275 11.8013 4.54748 11.6109 4.4135 11.4706C4.27952 11.3302 4.0978 11.2514 3.90832 11.2514C3.71884 11.2514 3.53712 11.3302 3.40314 11.4706C3.26916 11.6109 3.19389 11.8013 3.19389 11.9998C3.19389 12.1983 3.26916 12.3887 3.40314 12.529C3.53712 12.6694 3.71884 12.7482 3.90832 12.7482C4.0978 12.7482 4.27952 12.6694 4.4135 12.529C4.54748 12.3887 4.62275 12.1983 4.62275 11.9998ZM11.8079 11.9998C11.8079 11.8013 11.7327 11.6109 11.5987 11.4706C11.4647 11.3302 11.283 11.2514 11.0935 11.2514C10.904 11.2514 10.7223 11.3302 10.5883 11.4706C10.4543 11.6109 10.3791 11.8013 10.3791 11.9998C10.3791 12.1983 10.4543 12.3887 10.5883 12.529C10.7223 12.6694 10.904 12.7482 11.0935 12.7482C11.283 12.7482 11.4647 12.6694 11.5987 12.529C11.7327 12.3887 11.8079 12.1983 11.8079 11.9998Z" fill="#6C6E75"/>
</svg>
