<svg width="11" height="11" viewBox="0 0 11 11" fill="none" xmlns="http://www.w3.org/2000/svg">
<path d="M0 5.5C0 2.46243 2.46243 0 5.5 0V0C8.53757 0 11 2.46243 11 5.5V5.5C11 8.53757 8.53757 11 5.5 11V11C2.46243 11 0 8.53757 0 5.5V5.5Z" fill="#878E9F"/>
<path fill-rule="evenodd" clip-rule="evenodd" d="M5.75 3.30556C5.75 3.1368 5.6132 3 5.44444 3C5.27569 3 5.13889 3.1368 5.13889 3.30556V5.13886H3.30556C3.1368 5.13886 3 5.27566 3 5.44441C3 5.61317 3.1368 5.74997 3.30556 5.74997H5.13889V7.58333C5.13889 7.75209 5.27569 7.88889 5.44444 7.88889C5.6132 7.88889 5.75 7.75209 5.75 7.58333V5.74997H7.58333C7.75209 5.74997 7.88889 5.61317 7.88889 5.44441C7.88889 5.27566 7.75209 5.13886 7.58333 5.13886H5.75V3.30556Z" fill="white"/>
</svg>
