<svg width="131" height="130" viewBox="0 0 131 130" fill="none" xmlns="http://www.w3.org/2000/svg">
<g opacity="0.5">
<path d="M56.1211 74.7324C53.3842 71.9956 49.9783 70.88 46.2059 70.3729C42.632 69.8923 38.1301 69.8923 32.7313 69.893H25.5941C21.8431 69.893 18.7126 69.8923 16.1701 70.1346C13.5121 70.3871 11.0349 70.9356 8.76294 72.3276C6.53952 73.6905 4.67009 75.5599 3.30759 77.7832C1.91525 80.055 1.3669 82.5322 1.11415 85.1903C0.872432 87.7328 0.872496 90.8637 0.872561 94.6147V95.0559C0.872496 100.765 0.872496 105.368 1.22486 109.075C1.58827 112.897 2.35798 116.227 4.19305 119.221C6.05099 122.253 8.60016 124.802 11.6321 126.661C14.6267 128.495 17.9567 129.265 21.7788 129.629C25.4851 129.981 30.089 129.981 35.7979 129.981H36.2386C39.9897 129.981 43.1206 129.981 45.6632 129.739C48.3212 129.487 50.7983 128.938 53.0703 127.546C55.2936 126.183 57.163 124.314 58.526 122.091C59.918 119.818 60.4664 117.342 60.719 114.684C60.9612 112.141 60.9605 109.01 60.9605 105.259V98.1222C60.9612 92.7234 60.9612 88.2218 60.4806 84.6477C59.9735 80.8754 58.858 77.4693 56.1211 74.7324Z" fill="#878E9F"/>
<path d="M45.6632 1.03285C48.3212 1.28561 50.7983 1.83395 53.0703 3.22629C55.2936 4.58879 57.163 6.45823 58.526 8.68164C59.918 10.9536 60.4664 13.4308 60.719 16.0888C60.9612 18.6312 60.9605 21.7625 60.9605 25.5134V32.6502C60.9612 38.0489 60.9612 42.5507 60.4806 46.1246C59.9735 49.897 58.858 53.3029 56.1211 56.0398C53.3842 58.7767 49.9783 59.8922 46.2059 60.3993C42.632 60.8799 38.13 60.8799 32.7313 60.8792H25.5937C21.8428 60.8792 18.7125 60.8799 16.1701 60.6377C13.5121 60.3851 11.0349 59.8367 8.76294 58.4447C6.53952 57.0817 4.67009 55.2123 3.30759 52.989C1.91525 50.717 1.3669 48.2399 1.11415 45.5819C0.872432 43.0393 0.872496 39.9085 0.872561 36.1573V35.7163C0.872496 30.0076 0.872496 25.4037 1.22486 21.6975C1.58827 17.8754 2.35798 14.5454 4.19305 11.5508C6.05099 8.51886 8.60016 5.96969 11.6321 4.11176C14.6267 2.27668 17.9567 1.50697 21.7788 1.14356C25.485 0.791197 30.0892 0.791197 35.7979 0.791262H36.2388C39.9901 0.791197 43.1206 0.791133 45.6632 1.03285Z" fill="#878E9F"/>
<path d="M95.1361 0.791384H94.6949C90.9439 0.791319 87.813 0.791255 85.2705 1.03297C82.6124 1.28573 80.1352 1.83407 77.8634 3.22641C75.6401 4.58891 73.7707 6.45835 72.4078 8.68176C71.0158 10.9538 70.4673 13.4309 70.2148 16.0889C69.9725 18.6315 69.9732 21.7623 69.9732 25.5134V32.6501C69.9725 38.0489 69.9725 42.5509 70.4531 46.1248C70.9602 49.8971 72.0758 53.303 74.8126 56.0399C77.5495 58.7768 80.9556 59.8924 84.7279 60.3994C88.302 60.88 92.8036 60.88 98.2024 60.8794H105.339C109.09 60.8794 112.221 60.88 114.764 60.6378C117.422 60.3852 119.898 59.8368 122.171 58.4448C124.394 57.0818 126.264 55.2125 127.626 52.9891C129.019 50.7171 129.567 48.2401 129.82 45.582C130.061 43.0395 130.061 39.9091 130.061 36.1581V35.7167C130.061 30.0079 130.061 25.4039 129.709 21.6977C129.345 17.8755 128.575 14.5455 126.741 11.5509C124.883 8.51898 122.334 5.96982 119.302 4.11188C116.307 2.2768 112.977 1.50709 109.155 1.14368C105.449 0.791319 100.845 0.791319 95.1361 0.791384Z" fill="#878E9F"/>
</g>
<path opacity="0.4" d="M81 125.2C81 127.298 78.7618 129 75.9996 129C73.2382 129 71 127.298 71 125.2V110H81V125.2Z" fill="#878E9F"/>
<path opacity="0.5" d="M124 71C121.239 71 119 72.8959 119 75.2349V95H129V75.2349C129 72.8959 126.762 71 124 71Z" fill="#878E9F"/>
<path d="M91.5581 95.5269C91 96.8747 91 98.5834 91 102C91 105.417 91 107.125 91.5581 108.473C92.3024 110.27 93.7302 111.698 95.5269 112.442C96.8747 113 98.5834 113 102 113C105.417 113 107.125 113 108.473 112.442C110.27 111.698 111.698 110.27 112.442 108.473C113 107.125 113 105.417 113 102C113 98.5834 113 96.8747 112.442 95.5269C111.698 93.7302 110.27 92.3024 108.473 91.5581C107.125 91 105.417 91 102 91C98.5834 91 96.8747 91 95.5269 91.5581C93.7302 92.3024 92.3024 93.7302 91.5581 95.5269Z" fill="#878E9F"/>
<path opacity="0.7" d="M129 110.128V110H120.131C120.131 112.413 120.128 114.032 120.028 115.286C119.931 116.505 119.757 117.1 119.568 117.49C118.818 119.042 117.379 120.275 115.568 120.918C115.112 121.08 114.419 121.229 112.995 121.313C111.532 121.398 109.642 121.4 106.826 121.4H95V129H106.976C109.604 129 111.798 129 113.599 128.895C115.474 128.785 117.245 128.549 118.962 127.94C122.947 126.525 126.112 123.813 127.762 120.399C128.474 118.928 128.75 117.41 128.877 115.803C129 114.26 129 112.38 129 110.128Z" fill="#878E9F"/>
<path opacity="0.6" d="M71 94.7839V95H80.3598C80.3598 90.9466 80.3658 88.2251 80.5986 86.1501C80.824 84.1462 81.2224 83.2204 81.6745 82.6079C82.2434 81.8369 82.9746 81.1752 83.8265 80.6604C84.5033 80.2512 85.5263 79.8906 87.7406 79.6866C90.0335 79.4754 93.0407 79.4705 97.5203 79.4705H110V71.0001H97.2808C93.1024 70.9994 89.6162 70.9995 86.7935 71.2593C83.8392 71.5312 81.097 72.1225 78.6264 73.6171C76.7528 74.7499 75.1436 76.2057 73.8918 77.9018C72.241 80.1377 71.587 82.6194 71.2864 85.2929C70.9993 87.8475 71 91.0024 71 94.7839Z" fill="#878E9F"/>
<path d="M22.7133 109.019C24.3873 110 26.7582 110 31.5 110C36.2417 110 38.6126 110 40.2866 109.019C40.8773 108.673 41.3931 108.246 41.8122 107.759C43 106.375 43 104.417 43 100.5C43 96.5828 43 94.6246 41.8122 93.2414C41.3931 92.7537 40.8773 92.3275 40.2866 91.981C38.6126 91 36.2415 91 31.4998 91C26.7582 91 24.3873 91 22.7133 91.981C22.1227 92.3275 21.6069 92.7537 21.1878 93.2414C20 94.6246 20 96.5828 20 100.5C20 104.417 20 106.375 21.1878 107.759C21.6069 108.246 22.1227 108.673 22.7133 109.019Z" fill="#878E9F"/>
<path d="M31.5 43C26.7582 43 24.3873 43 22.7133 41.8122C22.1227 41.3931 21.6069 40.8773 21.1878 40.2866C20 38.6126 20 36.2417 20 31.5C20 26.7582 20 24.3873 21.1878 22.7133C21.6069 22.1226 22.1227 21.6069 22.7133 21.1877C24.3873 20 26.7582 20 31.5 20C36.2417 20 38.6126 20 40.2866 21.1877C40.8773 21.6069 41.3931 22.1226 41.8122 22.7133C43 24.3873 43 26.7582 43 31.5C43 36.2417 43 38.6126 41.8122 40.2866C41.3931 40.8773 40.8773 41.3931 40.2866 41.8122C38.6126 43 36.2417 43 31.5 43Z" fill="#878E9F"/>
<path d="M93.2414 41.8122C94.6246 43 96.5828 43 100.5 43C104.417 43 106.375 43 107.759 41.8122C108.246 41.3931 108.673 40.8773 109.019 40.2866C110 38.6126 110 36.2418 110 31.5C110 26.7582 110 24.3874 109.019 22.7134C108.673 22.1227 108.246 21.6069 107.759 21.1878C106.375 20 104.417 20 100.5 20C96.5828 20 94.6246 20 93.2414 21.1878C92.7537 21.6069 92.3275 22.1227 91.981 22.7134C91 24.3874 91 26.7585 91 31.5001C91 36.2418 91 38.6126 91.981 40.2866C92.3275 40.8773 92.7537 41.3931 93.2414 41.8122Z" fill="#878E9F"/>
</svg>
