<svg width="69" height="69" viewBox="0 0 69 69" fill="none" xmlns="http://www.w3.org/2000/svg">
<circle cx="34.5" cy="34.5" r="34.5" fill="#EAEAEA"/>
<circle cx="34.5" cy="35.5" r="23.5" fill="#BDDEC4"/>
<path d="M32.2191 40.8613C32.4404 40.6412 32.6876 40.3901 32.9606 40.108C36.6788 36.2631 40.5092 32.3122 44.4518 28.2553C44.7047 27.9947 45.1384 27.9275 45.4611 28.0819C46.0348 28.3557 46.19 29.1049 45.7333 29.5753C41.2714 34.1706 37.0652 38.5082 33.1145 42.588C32.5966 43.1229 31.8393 43.1424 31.3155 42.6144C29.2976 40.5799 27.2842 38.5498 25.2752 36.5241C24.7627 36.0074 25.0003 35.1284 25.704 34.9626C26.0838 34.8737 26.3718 35.013 26.6436 35.2873C28.4581 37.1177 30.301 38.9757 32.1723 40.8613C32.1879 40.877 32.2035 40.877 32.2191 40.8613Z" fill="#01D358"/>
</svg>
